<?xml version="1.0" encoding="utf-8"?>
<!-- Generator: Adobe Illustrator 26.3.1, SVG Export Plug-In . SVG Version: 6.00 Build 0)  -->
<svg version="1.1" id="Layer_1" xmlns="http://www.w3.org/2000/svg" xmlns:xlink="http://www.w3.org/1999/xlink" x="0px" y="0px"
	 viewBox="0 0 180 40" style="enable-background:new 0 0 180 40;" xml:space="preserve">
<style type="text/css">
	.st0{fill:url(#SVGID_1_);}
	.st1{fill:url(#SVGID_00000004506608159283526380000013310736494789835439_);}
	.st2{fill:url(#SVGID_00000054248442949511402890000013473123111109534594_);}
	.st3{fill:#0058D8;}
</style>
<linearGradient id="SVGID_1_" gradientUnits="userSpaceOnUse" x1="102.01" y1="14.19" x2="140.29" y2="14.19">
	<stop  offset="0.4497" style="stop-color:#0058D8"/>
	<stop  offset="0.75" style="stop-color:#0058D8;stop-opacity:0.1"/>
	<stop  offset="1" style="stop-color:#0058D8"/>
</linearGradient>
<path class="st0" d="M138.7,15.8h-35.1c-0.9,0-1.6-0.7-1.6-1.6s0.7-1.6,1.6-1.6h35.1c0.9,0,1.6,0.7,1.6,1.6S139.6,15.8,138.7,15.8z"
	/>
<linearGradient id="SVGID_00000172406365761036277090000014034611041539776948_" gradientUnits="userSpaceOnUse" x1="105.14" y1="20.36" x2="145.27" y2="20.36">
	<stop  offset="0.33" style="stop-color:#0058D8"/>
	<stop  offset="0.6" style="stop-color:#0058D8;stop-opacity:0.1"/>
	<stop  offset="0.81" style="stop-color:#0058D8"/>
</linearGradient>
<path style="fill:url(#SVGID_00000172406365761036277090000014034611041539776948_);" d="M143.7,21.9h-37c-0.9,0-1.6-0.7-1.6-1.6
	s0.7-1.6,1.6-1.6h37c0.9,0,1.6,0.7,1.6,1.6S144.6,21.9,143.7,21.9z"/>
<linearGradient id="SVGID_00000181077263818052537810000005651336800784519815_" gradientUnits="userSpaceOnUse" x1="102.01" y1="26.58" x2="137.08" y2="26.58">
	<stop  offset="0.45" style="stop-color:#0058D8"/>
	<stop  offset="0.7" style="stop-color:#0058D8;stop-opacity:0.1"/>
	<stop  offset="0.93" style="stop-color:#0058D8"/>
</linearGradient>
<path style="fill:url(#SVGID_00000181077263818052537810000005651336800784519815_);" d="M135.5,28.2h-31.9c-0.9,0-1.6-0.7-1.6-1.6
	s0.7-1.6,1.6-1.6h31.9c0.9,0,1.6,0.7,1.6,1.6S136.4,28.2,135.5,28.2z"/>
<path class="st3" d="M12.2,9H9.8c0-0.7,0-1.4,0-2.2c0-0.7,0-1.4,0-2.2c0-0.3-0.1-0.6-0.2-0.8S9.2,3.6,8.9,3.6c-0.2,0-0.4,0-0.7,0.1
	C7.9,3.7,7.6,3.8,7.4,3.9S6.8,4.1,6.5,4.2C6.2,4.3,6,4.4,5.8,4.4C5.5,4.5,5.3,4.6,5.1,4.8S4.9,5.1,4.9,5.3c0,0.6,0,1.2,0,1.8
	s0,1.2,0,1.8h-2C2.6,9,2.4,9,2.2,9.2S1.9,9.5,1.9,9.9v2.5c0,0.3,0.1,0.6,0.2,0.7s0.4,0.2,0.8,0.2h2v11.6c0,0.9,0.2,1.8,0.5,2.5
	c0.3,0.7,0.8,1.4,1.4,1.9c0.6,0.5,1.3,0.9,2.1,1.1c0.8,0.3,1.6,0.4,2.6,0.4c0.3,0,0.5-0.1,0.7-0.2s0.2-0.4,0.2-0.7v-2.4
	c0-0.2-0.1-0.5-0.2-0.6s-0.3-0.3-0.6-0.3c-0.7,0-1.1-0.2-1.4-0.5s-0.4-0.9-0.4-1.6v-2.3c0,0,0,0,0-0.1s0,0,0-0.1v-3.3
	c0-0.4,0-0.8,0-1.1c0-0.4,0-0.7,0-1.1v-3.3h2.5c0.3,0,0.5-0.1,0.7-0.2s0.2-0.4,0.2-0.8V9.9c0-0.3-0.1-0.6-0.2-0.7S12.5,8.9,12.2,9
	L12.2,9z M35.8,13.1c-0.5-0.7-1.1-1.3-1.8-1.9s-1.4-1-2.1-1.4c-0.8-0.4-1.6-0.7-2.4-0.9c-0.9-0.2-1.7-0.3-2.6-0.3
	c-1.1,0-2.1,0.1-3,0.4c-1,0.3-1.9,0.6-2.7,1.1c-0.8,0.5-1.6,1.1-2.2,1.8c-0.7,0.7-1.2,1.5-1.7,2.3c-0.5,0.8-0.8,1.7-1.1,2.7
	c-0.2,1-0.4,1.9-0.4,3c0,1.6,0.3,3.1,0.9,4.4c0.6,1.4,1.5,2.6,2.5,3.6c1,1,2.3,1.8,3.7,2.4c1.4,0.6,2.9,0.9,4.4,0.9
	c1.4,0,2.8-0.2,4-0.7c1.2-0.5,2.3-1.2,3.3-2c0.4-0.3,0.7-0.6,0.7-1c0-0.1,0-0.2-0.1-0.4s-0.2-0.3-0.3-0.5s-0.3-0.4-0.5-0.6
	c-0.2-0.2-0.5-0.6-0.8-1c-0.1-0.2-0.3-0.3-0.4-0.3c-0.1-0.1-0.2-0.1-0.3-0.1c-0.1,0-0.3,0-0.4,0.1c-0.1,0.1-0.3,0.2-0.4,0.3
	c0,0,0,0,0,0c-0.3,0.2-0.6,0.5-0.9,0.7c-0.4,0.2-0.7,0.4-1.1,0.6s-0.9,0.3-1.3,0.4s-1,0.2-1.5,0.2c-0.7,0-1.4-0.1-2-0.3
	c-0.7-0.2-1.3-0.6-1.9-1c-0.6-0.4-1.1-1-1.5-1.6c-0.4-0.6-0.7-1.4-0.9-2.2H36c0.4,0,0.7,0,1-0.1s0.4-0.2,0.5-0.3
	c0.1-0.1,0.2-0.3,0.2-0.5c0-0.2,0-0.5,0-0.8c0-1.4-0.2-2.6-0.5-3.7S36.5,14.1,35.8,13.1L35.8,13.1z M20.8,17.6
	c0.2-0.7,0.5-1.3,0.9-1.9s0.9-1.1,1.4-1.5c0.5-0.4,1.1-0.8,1.8-1c0.6-0.2,1.3-0.4,2-0.4c0.8,0,1.5,0.1,2.2,0.3
	c0.7,0.2,1.3,0.6,1.8,1c0.5,0.4,1,0.9,1.3,1.5c0.4,0.6,0.7,1.2,0.8,1.9L20.8,17.6L20.8,17.6z M45.9,2.5h-3c-0.3,0-0.6,0.1-0.7,0.3
	c-0.2,0.2-0.2,0.4-0.2,0.7v26.3c0,0.3,0.1,0.6,0.2,0.8c0.2,0.2,0.4,0.3,0.8,0.3h2.9c0.3,0,0.6-0.1,0.8-0.3s0.3-0.4,0.3-0.8V3.5
	c0-0.3-0.1-0.5-0.3-0.7C46.3,2.6,46.1,2.5,45.9,2.5L45.9,2.5z M70.8,13.1c-0.5-0.7-1.1-1.3-1.8-1.9c-0.7-0.6-1.4-1-2.2-1.4
	c-0.8-0.4-1.6-0.7-2.4-0.9c-0.8-0.2-1.7-0.3-2.6-0.3c-1.1,0-2.1,0.1-3,0.4c-1,0.3-1.8,0.6-2.7,1.1c-0.8,0.5-1.6,1.1-2.2,1.8
	c-0.7,0.7-1.2,1.5-1.7,2.3s-0.8,1.7-1.1,2.7c-0.2,1-0.4,1.9-0.4,3c0,1.6,0.3,3.1,0.9,4.4c0.6,1.4,1.5,2.6,2.5,3.6
	c1,1,2.3,1.8,3.7,2.4c1.4,0.6,2.9,0.9,4.4,0.9c1.4,0,2.8-0.2,4-0.7s2.3-1.2,3.3-2c0.4-0.3,0.7-0.6,0.7-1c0-0.1,0-0.2-0.1-0.4
	s-0.2-0.3-0.3-0.5s-0.3-0.4-0.5-0.6c-0.2-0.2-0.5-0.6-0.8-1c-0.1-0.2-0.3-0.3-0.4-0.3c-0.1-0.1-0.2-0.1-0.3-0.1
	c-0.1,0-0.3,0-0.4,0.1c-0.1,0.1-0.3,0.2-0.4,0.3c0,0,0,0,0,0c-0.3,0.2-0.6,0.5-0.9,0.7c-0.3,0.2-0.7,0.4-1.2,0.6s-0.9,0.3-1.3,0.4
	s-1,0.2-1.5,0.2c-0.7,0-1.4-0.1-2-0.3c-0.7-0.2-1.3-0.6-1.9-1c-0.6-0.4-1.1-1-1.5-1.6c-0.4-0.6-0.7-1.4-0.8-2.2h15.3
	c0.4,0,0.7,0,1-0.1s0.4-0.2,0.5-0.3c0.1-0.1,0.2-0.3,0.2-0.5c0-0.2,0-0.5,0-0.8c0-1.4-0.2-2.6-0.5-3.7S71.5,14.1,70.8,13.1
	L70.8,13.1z M55.9,17.6c0.2-0.7,0.5-1.3,0.9-1.9s0.9-1.1,1.4-1.5c0.5-0.4,1.1-0.8,1.8-1c0.6-0.2,1.3-0.4,2-0.4
	c0.8,0,1.5,0.1,2.2,0.3c0.7,0.2,1.3,0.6,1.8,1s1,0.9,1.3,1.5c0.4,0.6,0.7,1.2,0.8,1.9L55.9,17.6L55.9,17.6z M98.1,14.2
	c-0.5-0.8-1.1-1.6-1.7-2.3c-0.7-0.7-1.4-1.3-2.2-1.8c-0.8-0.5-1.7-0.9-2.7-1.1s-1.9-0.4-3-0.4c-0.8,0-1.6,0.1-2.2,0.3
	C85.6,9,85,9.3,84.4,9.6s-1.1,0.7-1.5,1.1c-0.4,0.4-0.9,0.9-1.3,1.3l-0.4-2.1c-0.1-0.3-0.2-0.6-0.3-0.7c-0.1-0.2-0.4-0.3-0.7-0.3
	h-1.7c-0.2,0-0.3,0-0.5,0c-0.2,0-0.3,0.1-0.5,0.1c-0.2,0.1-0.3,0.2-0.5,0.3c-0.1,0.1-0.2,0.3-0.2,0.6v26.6c0,0.3,0.1,0.5,0.3,0.7
	c0.2,0.2,0.5,0.3,0.7,0.3h2.9c0.3,0,0.6-0.1,0.8-0.3c0.2-0.2,0.3-0.4,0.3-0.7v-8.4c0.4,0.4,0.8,0.8,1.3,1.2c0.4,0.4,0.9,0.7,1.5,1
	c0.5,0.3,1.1,0.5,1.7,0.7s1.3,0.2,2.1,0.2c1,0,2-0.1,3-0.4c0.9-0.3,1.8-0.6,2.7-1.1c0.8-0.5,1.6-1.1,2.2-1.8
	c0.7-0.7,1.2-1.5,1.7-2.3s0.8-1.7,1.1-2.7s0.4-2,0.4-3s-0.1-2-0.4-3S98.5,15,98.1,14.2L98.1,14.2z M94.2,22.5
	c-0.3,0.8-0.8,1.5-1.3,2.2s-1.2,1.1-2,1.5c-0.8,0.4-1.6,0.5-2.5,0.5s-1.8-0.2-2.6-0.5c-0.8-0.4-1.5-0.9-2.1-1.5
	c-0.6-0.6-1.1-1.4-1.4-2.2c-0.3-0.8-0.5-1.7-0.5-2.6v-0.1c0-0.9,0.2-1.8,0.6-2.5s0.8-1.5,1.4-2.1c0.6-0.6,1.3-1.1,2.1-1.4
	c0.8-0.4,1.7-0.5,2.6-0.5s1.8,0.2,2.5,0.5s1.5,0.9,2,1.5s1,1.3,1.3,2.2s0.5,1.7,0.5,2.6S94.5,21.7,94.2,22.5L94.2,22.5z M164.6,10.6
	c-0.5-0.3-0.9-0.6-1.3-0.9s-0.8-0.4-1.2-0.6c-0.4-0.2-0.9-0.3-1.3-0.3s-1-0.1-1.6-0.1c-0.6,0-1.2,0.1-1.7,0.2
	c-0.5,0.2-1,0.4-1.4,0.6c-0.4,0.3-0.8,0.6-1.1,0.9s-0.6,0.7-0.9,1c-0.1-0.2-0.1-0.5-0.1-0.8s-0.1-0.6-0.2-0.8s-0.2-0.5-0.4-0.6
	c-0.1-0.2-0.4-0.3-0.7-0.3h-2.2c-0.3,0-0.5,0.1-0.7,0.3s-0.3,0.4-0.3,0.8v19.8c0,0.7,0.4,1,1.1,1h2.8c0.7,0,1.1-0.3,1.1-1v-13
	c0.2-1.1,0.7-2.1,1.4-2.7c0.7-0.7,1.6-1,2.6-1c0.4,0,0.7,0,1.1,0.1c0.3,0.1,0.6,0.2,0.9,0.3s0.6,0.3,0.9,0.5s0.7,0.4,1,0.6
	c0.2,0.1,0.4,0.1,0.5,0.1c0.1,0,0.2,0,0.3-0.1s0.2-0.1,0.3-0.2l1.4-2.2c0.1-0.1,0.1-0.2,0.1-0.3c0-0.1,0-0.2,0.1-0.3
	c0-0.2-0.1-0.4-0.2-0.6C165,10.9,164.8,10.7,164.6,10.6L164.6,10.6z M177.8,9.2c-0.2-0.1-0.4-0.2-0.7-0.2h-2.5c0-0.7,0-1.4,0-2.2
	c0-0.7,0-1.4,0-2.2c0-0.3-0.1-0.6-0.2-0.8s-0.3-0.3-0.7-0.3c-0.2,0-0.4,0-0.7,0.1s-0.6,0.1-0.9,0.2s-0.6,0.2-0.9,0.3
	c-0.3,0.1-0.5,0.2-0.7,0.2c-0.3,0.1-0.5,0.2-0.7,0.3s-0.2,0.3-0.2,0.5c0,0.6,0,1.2,0,1.8s0,1.2,0,1.8h-2c-0.3,0-0.6,0.1-0.8,0.2
	s-0.2,0.4-0.2,0.7v2.5c0,0.3,0.1,0.6,0.2,0.7s0.4,0.2,0.8,0.2h2V25c0,0.9,0.2,1.8,0.5,2.5c0.3,0.7,0.8,1.4,1.4,1.9
	c0.6,0.5,1.3,0.9,2.1,1.1c0.8,0.3,1.6,0.4,2.6,0.4c0.3,0,0.5-0.1,0.7-0.2s0.2-0.4,0.2-0.7v-2.4c0-0.2-0.1-0.5-0.2-0.6
	s-0.3-0.3-0.6-0.3c-0.7,0-1.1-0.2-1.4-0.5s-0.4-0.9-0.4-1.6v-2.3c0,0,0,0,0-0.1s0,0,0-0.1v-3.3c0-0.4,0-0.8,0-1.1c0-0.4,0-0.7,0-1.1
	v-3.3h2.5c0.3,0,0.5-0.1,0.7-0.2s0.2-0.4,0.2-0.8V9.9C178.1,9.6,178,9.3,177.8,9.2L177.8,9.2z M129.3,3.2c-1-0.5-2.6-1-4.7,0
	c-3.6,1.7-6.1,5.1-6.2,5.2c-0.5,0.7-0.4,1.7,0.3,2.2c0.7,0.5,1.7,0.4,2.2-0.4c0,0,2.2-2.9,5-4.2c0.8-0.3,1.4-0.4,1.9-0.1
	c0.6,0.3,1.1,1.1,1.2,2c0.3,2.3,0.5,5.4-0.9,10.2c-1.4,4.8-3.9,9.5-6.8,12.6c-2.6,2.9-4.7,3.7-5.5,3.6c-0.4-0.1-1.5-0.2-1.9-3.3
	c-0.1-0.9-0.9-1.5-1.8-1.3c-0.9,0.1-1.4,0.9-1.3,1.8c0.6,3.5,2.1,5.5,4.6,5.9c0.2,0,0.4,0.1,0.7,0.1l0,0c3.1,0,6.3-3.2,7.7-4.7
	c3.2-3.5,5.9-8.6,7.5-13.8c1.6-5.4,1.4-8.8,1-11.5C131.9,5.6,130.8,3.9,129.3,3.2L129.3,3.2z"/>
</svg>
