<svg width="24" height="24" viewBox="0 0 24 24" fill="none" xmlns="http://www.w3.org/2000/svg">
<path d="M15.6004 13.8C16.76 13.8001 17.8748 14.2478 18.7124 15.0498C19.5499 15.8518 20.0456 16.9462 20.0959 18.1047L20.1004 18.3V19.2C20.1005 19.6541 19.929 20.0915 19.6202 20.4245C19.3115 20.7575 18.8882 20.9614 18.4354 20.9955L18.3004 21H5.70039C5.24627 21.0001 4.80888 20.8286 4.4759 20.5199C4.14291 20.2111 3.93895 19.7878 3.90489 19.335L3.90039 19.2V18.3C3.90046 17.1404 4.34818 16.0256 5.15018 15.188C5.95219 14.3504 7.04657 13.8548 8.20509 13.8045L8.40039 13.8H15.6004ZM12.0004 3C13.1939 3 14.3385 3.47411 15.1824 4.31802C16.0263 5.16193 16.5004 6.30653 16.5004 7.5C16.5004 8.69347 16.0263 9.83807 15.1824 10.682C14.3385 11.5259 13.1939 12 12.0004 12C10.8069 12 9.66232 11.5259 8.81841 10.682C7.9745 9.83807 7.50039 8.69347 7.50039 7.5C7.50039 6.30653 7.9745 5.16193 8.81841 4.31802C9.66232 3.47411 10.8069 3 12.0004 3Z" fill="#52B5D5"/>
</svg>
